<?xml version="1.0" encoding="utf-8"?>
<!-- Generator: Adobe Illustrator 23.0.2, SVG Export Plug-In . SVG Version: 6.00 Build 0)  -->
<svg version="1.1" id="Layer_1" xmlns="http://www.w3.org/2000/svg" xmlns:xlink="http://www.w3.org/1999/xlink" x="0px" y="0px"
	 viewBox="0 0 174 173" style="enable-background:new 0 0 174 173;" xml:space="preserve">
<style type="text/css">
	.st0{fill:#FFFFFF;}
</style>
<g>
	<path class="st0" d="M103.8,16l-1.8-0.3L96.2,3.3l-1.7,11.3l-1.8-0.3l2.1-14.2l1.8,0.3l5.8,12.3l1.7-11.2l1.8,0.3L103.8,16z"/>
	<path class="st0" d="M111.4,5L110,9.5l5,1.6l-0.5,1.5l-5-1.6l-1.5,4.7l5.6,1.8l-0.5,1.5l-7.3-2.3l4.3-13.6l7.3,2.3L117,6.7L111.4,5
		z"/>
	<path class="st0" d="M123.2,15.7L124,24l-1.9-0.9l-0.6-6.5l-5.4,3.6l-1.9-0.9l7.1-4.5l-0.8-8.4l1.9,0.9l0.6,6.5l5.4-3.6l1.9,0.9
		L123.2,15.7z"/>
	<path class="st0" d="M140.6,18.1l-0.9,1.2l-3.2-2.2l-7.3,10.5l-1.5-1.1L135,16l-3.2-2.2l0.9-1.2L140.6,18.1z"/>
	<path class="st0" d="M148.1,35.1c-1.1-0.1-2.3-0.7-3.4-1.9l-1.9-2l-4.4,4.1l-1.3-1.4l10.4-9.8l3.2,3.4c1.1,1.2,1.7,2.3,1.7,3.5
		s-0.4,2.1-1.3,3C150.2,34.8,149.2,35.2,148.1,35.1z M147.8,33.4c0.7,0.1,1.3-0.2,1.9-0.8c1.3-1.2,1.2-2.5-0.1-4l-1.9-2l-3.8,3.6
		l1.9,2C146.5,32.9,147.2,33.3,147.8,33.4z"/>
	<path class="st0" d="M148.7,48.1l2.9-6.1l-1.3-1.9l-4.8,3.3l-1.1-1.5l11.8-8.1l2.6,3.8c0.6,0.9,1,1.7,1.1,2.6s0,1.6-0.3,2.2
		c-0.3,0.7-0.8,1.2-1.5,1.7c-0.8,0.6-1.7,0.8-2.6,0.8c-0.9,0-1.8-0.5-2.7-1.3l-2.9,6.3L148.7,48.1z M151.5,39.3l1.5,2.3
		c0.6,0.8,1.2,1.3,1.9,1.5c0.7,0.1,1.4,0,2.1-0.5c0.7-0.5,1.1-1.1,1.2-1.7c0.1-0.7-0.1-1.4-0.7-2.3l-1.5-2.3L151.5,39.3z"/>
	<path class="st0" d="M152.6,53.4c0.1-1.3,0.6-2.4,1.3-3.4c0.8-1,1.8-1.8,3.1-2.4c1.3-0.6,2.5-0.8,3.8-0.7s2.4,0.6,3.4,1.3
		c1,0.7,1.8,1.7,2.3,2.9c0.5,1.2,0.8,2.5,0.6,3.7c-0.1,1.3-0.6,2.4-1.3,3.4c-0.8,1-1.8,1.8-3.1,2.4c-1.3,0.6-2.6,0.8-3.8,0.7
		c-1.3-0.1-2.4-0.6-3.4-1.3c-1-0.7-1.8-1.7-2.3-3C152.7,55.9,152.5,54.7,152.6,53.4z M156.4,58.7c0.7,0.5,1.6,0.8,2.6,0.9
		c1,0.1,2-0.1,3-0.6c1-0.5,1.9-1.1,2.5-1.8s0.9-1.6,1-2.5c0.1-0.9-0.1-1.8-0.5-2.8c-0.4-0.9-1-1.7-1.7-2.2c-0.7-0.5-1.6-0.8-2.6-0.9
		s-2,0.1-3,0.6c-1,0.5-1.9,1.1-2.5,1.8c-0.6,0.8-1,1.6-1.1,2.5c-0.1,0.9,0.1,1.8,0.5,2.7C155.1,57.4,155.7,58.1,156.4,58.7z"/>
	<path class="st0" d="M172,68.4L161.8,71c-1.1,0.3-2.1,0.2-3-0.4c-0.9-0.5-1.4-1.4-1.7-2.5c-0.3-1.2-0.2-2.2,0.3-3.1
		c0.5-0.9,1.4-1.5,2.6-1.8l0.5,1.8c-0.7,0.2-1.2,0.5-1.5,0.9c-0.3,0.4-0.4,1-0.3,1.7c0.2,0.7,0.5,1.1,1,1.4c0.5,0.2,1,0.3,1.7,0.1
		l10.2-2.6L172,68.4z"/>
	<path class="st0" d="M171.6,75l-4.7,0.5l0.6,5.2l-1.5,0.2l-0.6-5.2l-4.9,0.5L161,82l-1.5,0.2l-0.8-7.6l14.2-1.6l0.8,7.6l-1.5,0.2
		L171.6,75z"/>
	<path class="st0" d="M170.6,84.7c1.1,0.7,1.9,1.6,2.5,2.7s0.8,2.3,0.7,3.7c-0.1,1.6-0.5,2.9-1.3,4c-0.8,1.1-1.9,1.9-3.3,2.4
		l0.1-2.2c0.9-0.3,1.6-0.9,2.1-1.6s0.8-1.6,0.8-2.6c0.1-1-0.1-1.9-0.5-2.7c-0.4-0.8-1-1.5-1.9-2c-0.8-0.5-1.8-0.8-3-0.8
		c-1.1-0.1-2.1,0.1-3,0.5c-0.9,0.4-1.6,1-2.1,1.8c-0.5,0.8-0.8,1.6-0.8,2.6c-0.1,1,0.1,1.9,0.5,2.7c0.4,0.8,1,1.4,1.9,1.8l-0.1,2.2
		c-1.3-0.6-2.3-1.5-3-2.7c-0.7-1.2-1-2.6-0.9-4.1c0.1-1.3,0.4-2.5,1.1-3.6c0.7-1.1,1.6-1.9,2.7-2.4c1.1-0.6,2.4-0.8,3.8-0.7
		C168.3,83.6,169.6,84,170.6,84.7z"/>
	<path class="st0" d="M170.6,110.2l-1.5-0.3l0.9-3.8l-12.4-2.8l0.4-1.8l12.4,2.8l0.9-3.8l1.5,0.3L170.6,110.2z"/>
	<path class="st0" d="M158.7,123.5l-1.4-0.7l3.5-7.4l1.4,0.7L158.7,123.5z"/>
	<path class="st0" d="M140.6,135.1l1.2-1.5l13.6,1.2l-8.9-7.1l1.2-1.5l11.2,8.9l-1.2,1.5l-13.6-1.2l8.9,7l-1.2,1.5L140.6,135.1z"/>
	<path class="st0" d="M146.3,147.2l-3.2-3.5l-3.8,3.5l-1-1.1l3.8-3.5l-3.3-3.6l-4.3,3.9l-1-1.1l5.7-5.2l9.7,10.5l-5.7,5.2l-1-1.1
		L146.3,147.2z"/>
	<path class="st0" d="M131.2,152.1l-7.6-3.4l1.7-1.2l6,2.7l-0.4-6.4l1.7-1.2l0.4,8.4l7.7,3.4l-1.7,1.2l-6-2.7l0.4,6.5l-1.7,1.2
		L131.2,152.1z"/>
	<path class="st0" d="M120.5,166l-0.7-1.4l3.5-1.7l-5.5-11.5l1.7-0.8l5.5,11.5l3.5-1.7l0.7,1.4L120.5,166z"/>
	<path class="st0" d="M101.9,164c0.6-1,1.7-1.6,3.4-2l2.7-0.6l-1.4-5.8l1.8-0.4l3.3,13.9l-4.5,1.1c-1.6,0.4-2.9,0.3-3.8-0.3
		c-1-0.6-1.6-1.4-1.9-2.6C101.2,166,101.3,165,101.9,164z M103.6,164.7c-0.4,0.6-0.5,1.2-0.3,2c0.4,1.7,1.6,2.3,3.6,1.9l2.7-0.6
		l-1.2-5.1l-2.7,0.6C104.6,163.7,103.9,164.1,103.6,164.7z"/>
	<path class="st0" d="M90.4,158.1l3.8,5.6l2.2-0.2l-0.4-5.8l1.9-0.1l1.1,14.2l-4.6,0.4c-1.1,0.1-2,0-2.8-0.3
		c-0.8-0.3-1.4-0.8-1.8-1.4s-0.7-1.3-0.7-2.1c-0.1-1,0.1-1.9,0.6-2.7s1.3-1.4,2.4-1.7l-4-5.7L90.4,158.1z M96.6,164.9l-2.7,0.2
		c-1,0.1-1.7,0.4-2.2,0.9c-0.5,0.5-0.7,1.2-0.6,2.1c0.1,0.8,0.4,1.5,0.9,1.9s1.3,0.6,2.3,0.5l2.7-0.2L96.6,164.9z"/>
	<path class="st0" d="M83.8,158.8c1,0.7,1.8,1.7,2.3,2.9c0.5,1.2,0.7,2.5,0.6,3.8c-0.1,1.4-0.6,2.6-1.3,3.6c-0.7,1-1.7,1.8-2.8,2.3
		c-1.2,0.5-2.4,0.7-3.7,0.6c-1.3-0.1-2.5-0.6-3.5-1.3c-1-0.7-1.8-1.7-2.3-2.8s-0.7-2.4-0.6-3.8c0.1-1.4,0.6-2.6,1.3-3.7
		c0.7-1,1.7-1.8,2.8-2.3c1.2-0.5,2.4-0.7,3.7-0.6C81.6,157.7,82.8,158.1,83.8,158.8z M77.4,159.6c-0.8,0.4-1.5,1-2.1,1.8
		c-0.5,0.8-0.9,1.8-1,2.9c-0.1,1.1,0,2.2,0.4,3.1c0.4,0.9,0.9,1.6,1.7,2.2c0.7,0.5,1.6,0.9,2.6,1c1,0.1,1.9,0,2.8-0.4
		c0.8-0.4,1.5-1,2.1-1.8s0.9-1.8,1-2.9c0.1-1.1,0-2.1-0.4-3c-0.4-0.9-0.9-1.6-1.7-2.2c-0.7-0.5-1.6-0.9-2.6-1
		C79.1,159,78.2,159.2,77.4,159.6z"/>
	<path class="st0" d="M61.2,168.2l2.8-10.2c0.3-1.1,0.9-1.9,1.8-2.4c0.9-0.5,1.9-0.6,3-0.2c1.2,0.3,2,0.9,2.5,1.8
		c0.5,0.9,0.6,1.9,0.3,3.1l-1.8-0.5c0.2-0.7,0.2-1.3-0.1-1.8c-0.2-0.5-0.7-0.9-1.3-1.1c-0.7-0.2-1.2-0.1-1.7,0.2
		c-0.4,0.3-0.7,0.8-0.9,1.4L63,168.8L61.2,168.2z"/>
	<path class="st0" d="M55.7,164.6l1.9-4.4l-4.8-2.1l0.6-1.4l4.8,2.1l2-4.5l-5.3-2.3l0.6-1.4l7.1,3.1l-5.7,13.1l-7.1-3.1l0.6-1.4
		L55.7,164.6z"/>
	<path class="st0" d="M47.7,158.9c-1.1,0.6-2.3,0.9-3.6,0.8c-1.3-0.1-2.4-0.5-3.5-1.2c-1.3-0.8-2.2-1.9-2.8-3.2
		c-0.6-1.3-0.7-2.6-0.4-4.1l1.9,1.2c-0.1,0.9,0,1.8,0.4,2.6c0.4,0.8,1,1.5,1.9,2c0.8,0.5,1.7,0.8,2.6,0.9c0.9,0,1.8-0.2,2.6-0.6
		s1.6-1.2,2.2-2.1c0.6-1,1-1.9,1.1-2.9c0.1-1-0.1-1.9-0.5-2.7c-0.4-0.8-1-1.5-1.9-2c-0.9-0.6-1.7-0.9-2.6-0.9s-1.7,0.2-2.5,0.7
		l-1.9-1.2c1.2-0.9,2.5-1.3,3.9-1.3c1.4,0,2.7,0.4,4,1.3c1.1,0.7,2,1.6,2.5,2.8c0.6,1.1,0.8,2.3,0.7,3.6c-0.1,1.3-0.5,2.5-1.3,3.7
		C49.8,157.5,48.8,158.3,47.7,158.9z"/>
	<path class="st0" d="M25.7,146.2l1-1.1l2.9,2.6l8.7-9.4l1.4,1.3l-8.7,9.4l2.9,2.7l-1,1.1L25.7,146.2z"/>
	<path class="st0" d="M20,129.3l1.3-0.9l4.7,6.7l-1.3,0.9L20,129.3z"/>
	<path class="st0" d="M18.9,107.8l0.7,1.7l-7.8,11.2l10.6-4.2l0.7,1.7l-13.3,5.3l-0.7-1.7l7.7-11.2l-10.5,4.2l-0.7-1.7L18.9,107.8z"
		/>
	<path class="st0" d="M5.6,106.7l4.7-1.1l-1.1-5.1l1.5-0.3l1.1,5.1l4.8-1.1l-1.3-5.7l1.5-0.3l1.7,7.5l-14,3.2l-1.7-7.5l1.5-0.3
		L5.6,106.7z"/>
	<path class="st0" d="M8.9,91.2l6.8-4.9l0.2,2.1l-5.3,3.8l5.8,2.8l0.2,2.1L9,93.3l-6.8,4.9l-0.2-2.1l5.3-3.9l-5.8-2.8l-0.2-2.1
		L8.9,91.2z"/>
	<path class="st0" d="M2.1,75l1.5,0.1L3.4,79l12.7,0.9L16,81.8L3.2,80.9l-0.3,3.9l-1.5-0.1L2.1,75z"/>
	<path class="st0" d="M13.1,59.9c0.5,1,0.5,2.3,0.1,3.9l-0.8,2.6l5.7,1.7l-0.5,1.8L3.9,65.9l1.3-4.4c0.5-1.5,1.2-2.6,2.2-3.2
		s2.1-0.7,3.2-0.4C11.7,58.2,12.6,58.9,13.1,59.9z M11.7,61c-0.3-0.6-0.8-1-1.6-1.3c-1.7-0.5-2.8,0.2-3.4,2.2l-0.8,2.6l5,1.5
		l0.8-2.6C12,62.4,12,61.6,11.7,61z"/>
	<path class="st0" d="M24,52.8l-6.7,0.6l-1,2l5.3,2.5l-0.8,1.7L7.9,53.5l2-4.2c0.5-1,1-1.7,1.7-2.2c0.7-0.5,1.3-0.8,2.1-0.9
		s1.5,0.1,2.2,0.4c0.9,0.4,1.6,1.1,2,1.9s0.5,1.8,0.3,2.9l6.9-0.7L24,52.8z M14.9,54.8l1.2-2.5c0.4-0.9,0.5-1.7,0.3-2.4
		c-0.2-0.7-0.7-1.2-1.5-1.5c-0.8-0.4-1.5-0.4-2.1-0.2c-0.6,0.3-1.2,0.8-1.6,1.8L10,52.5L14.9,54.8z"/>
	<path class="st0" d="M26.6,46.7c-1.1,0.5-2.4,0.7-3.6,0.6c-1.3-0.1-2.5-0.6-3.6-1.4s-2-1.8-2.5-3c-0.5-1.2-0.7-2.4-0.6-3.6
		c0.1-1.3,0.6-2.4,1.4-3.5c0.8-1.1,1.7-1.9,2.9-2.4c1.1-0.5,2.3-0.7,3.6-0.6c1.3,0.1,2.5,0.6,3.6,1.4c1.1,0.8,2,1.8,2.5,3
		c0.5,1.2,0.7,2.4,0.6,3.6c-0.1,1.3-0.6,2.4-1.4,3.5C28.7,45.4,27.7,46.2,26.6,46.7z M29.2,40.8c0.1-0.9-0.1-1.8-0.5-2.7
		c-0.4-0.9-1.1-1.6-2-2.3c-0.9-0.7-1.9-1.1-2.8-1.2s-1.9,0-2.7,0.4c-0.8,0.4-1.6,1-2.1,1.8c-0.6,0.8-0.9,1.7-1,2.6
		c-0.1,0.9,0.1,1.8,0.5,2.7c0.4,0.9,1.1,1.6,2,2.3c0.9,0.7,1.9,1.1,2.8,1.2s1.9,0,2.7-0.4c0.8-0.4,1.6-1,2.1-1.8
		C28.7,42.6,29.1,41.7,29.2,40.8z"/>
	<path class="st0" d="M29.7,22.4l7.4,7.5c0.8,0.8,1.2,1.8,1.2,2.8s-0.5,1.9-1.3,2.8c-0.9,0.8-1.8,1.3-2.8,1.3c-1,0-2-0.5-2.8-1.3
		l1.3-1.3c0.5,0.5,1,0.8,1.6,0.8s1.1-0.1,1.6-0.6c0.5-0.5,0.7-1,0.7-1.5s-0.3-1-0.7-1.5l-7.4-7.5L29.7,22.4z"/>
	<path class="st0" d="M35.6,19.5l2.9,3.8l4.2-3.1l0.9,1.2l-4.2,3.1l2.9,3.9L47,25l0.9,1.2l-6.2,4.6l-8.6-11.5l6.2-4.6l0.9,1.2
		L35.6,19.5z"/>
	<path class="st0" d="M44.5,15.4c0-1.3,0.4-2.4,1.1-3.5c0.7-1.1,1.6-1.9,2.8-2.5c1.4-0.7,2.8-1,4.1-0.9c1.4,0.1,2.6,0.7,3.7,1.7
		l-2,1c-0.7-0.6-1.6-0.9-2.4-1c-0.9-0.1-1.8,0.1-2.7,0.6c-0.9,0.5-1.6,1.1-2.1,1.8c-0.5,0.8-0.7,1.6-0.8,2.6c0,1,0.2,2,0.8,3
		c0.5,1,1.2,1.8,2,2.3c0.8,0.6,1.6,0.9,2.6,0.9s1.8-0.2,2.7-0.6c0.9-0.5,1.6-1.1,2.1-1.8c0.5-0.7,0.7-1.6,0.6-2.5l2-1
		c0.2,1.5-0.1,2.8-0.8,4c-0.7,1.2-1.7,2.1-3.1,2.9c-1.2,0.6-2.4,0.9-3.6,0.8S49,22.7,47.9,22c-1.1-0.7-1.9-1.7-2.6-2.9
		S44.4,16.6,44.5,15.4z"/>
	<path class="st0" d="M66.5,2.6L67,4l-3.7,1.2l3.8,12.2l-1.8,0.6L61.5,5.7l-3.7,1.2l-0.5-1.4L66.5,2.6z"/>
	<path class="st0" d="M84,6.1l0.1,1.6L76,8.4l-0.1-1.6L84,6.1z"/>
</g>
</svg>
